<?xml version="1.0" encoding="utf-8"?>
<!-- Generator: Adobe Illustrator 25.2.3, SVG Export Plug-In . SVG Version: 6.00 Build 0)  -->
<svg version="1.1" id="Layer_1" xmlns="http://www.w3.org/2000/svg" xmlns:xlink="http://www.w3.org/1999/xlink" x="0px" y="0px"
	 viewBox="0 0 500 500" style="enable-background:new 0 0 500 500;" xml:space="preserve">
<style type="text/css">
	.st0{fill:none;stroke:#ED1C24;stroke-width:10;stroke-miterlimit:10;}
	.st1{fill:none;}
	.st2{fill:#ED1C24;}
	.st3{font-family:'FranklinGothic-Heavy';}
	.st4{font-size:72px;}
	.st5{fill:#FBB040;}
</style>
<path class="st0" d="M0,252h144c0,0-117-216,108-216s108,216,108,216h140"/>
<polyline class="st0" points="0,251.44 171,252 180,234 189,270 198,234 207,270 216,234 225,270 234,234 243,270 252,234 261,270 
	270,234 279,270 288,234 297,270 306,234 315,270 324,234 333,270 342,252 500,252.33 "/>
<rect x="18" y="297" class="st0" width="180" height="180"/>
<rect x="221" y="297" class="st1" width="256" height="180"/>
<text transform="matrix(1 0 0 1 221 381.0117)"><tspan x="0" y="0" class="st2 st3 st4">Kreis</tspan><tspan x="0" y="60" class="st2 st3 st4">lauf</tspan></text>
<rect x="414" y="315" class="st1" width="53.73" height="144"/>
<text transform="matrix(1 0 0 1 414.0003 381.0117)"><tspan x="0" y="0" class="st2 st3 st4">A</tspan><tspan x="0" y="60" class="st2 st3 st4">G</tspan></text>
<rect x="27" y="306" width="162" height="54"/>
<rect x="27" y="360" class="st2" width="162" height="54"/>
<rect x="27" y="414" class="st5" width="162" height="54"/>
</svg>
